<svg enable-background="new 0 0 200 200" height="30" viewBox="0 0 200 200" width="30" xmlns="http://www.w3.org/2000/svg">
  <clipPath id="a">
    <path clip-rule="evenodd"
          d="m100 10.547c49.37 0 89.453 40.083 89.453 89.453 0 93.284-109.752 139.496-157.332 155.146-5.028 1.597-10.516.699-14.774-2.416s-6.774-8.074-6.774-13.35c-.026-44.211-.026-139.38-.026-139.38 0-49.37 40.083-89.453 89.453-89.453z"/>
  </clipPath>
  <g fill="none" transform="matrix(.783337 0 0 1 -354.093 -485.418639)">
    <path d="m452.032 485.419h200.428v200.428h-200.428z"/>
    <g transform="matrix(.887335 0 0 .695083 463.512 491.096)">
      <path
            d="m100 10.547c49.37 0 89.453 40.083 89.453 89.453 0 93.284-109.752 139.496-157.332 155.146-5.028 1.597-10.516.699-14.774-2.416s-6.774-8.074-6.774-13.35c-.026-44.211-.026-139.38-.026-139.38 0-49.37 40.083-89.453 89.453-89.453z"/>
      <g clip-path="url(#a)" stroke="#4797ff">
        <path
              d="m152.859 88.576c0 36.334-29.498 65.832-65.832 65.832-18.819 0-35.804-7.914-47.807-20.592"
              stroke-width="12.52" transform="matrix(1.8383 0 0 1.8383 -83.7675 -82.1042)"/>
        <circle cx="87.027" cy="88.576" r="65.832" stroke-width="23.27"
                transform="matrix(.989007 0 0 .989007 -4.79082 -6.87718)"/>
      </g>
      <path
            d="m100 10.547c49.37 0 89.453 40.083 89.453 89.453 0 93.284-109.752 139.496-157.332 155.146-5.028 1.597-10.516.699-14.774-2.416s-6.774-8.074-6.774-13.35c-.026-44.211-.026-139.38-.026-139.38 0-49.37 40.083-89.453 89.453-89.453z"
            stroke="#0051fa" stroke-width="23.02"/>
    </g>
  </g>
</svg>